<svg width="50" height="51" viewBox="0 0 40 41" fill="none" xmlns="http://www.w3.org/2000/svg">
<g clip-path="url(#clip0_1017_12)">
<mask id="mask0_1017_12" style="mask-type:luminance" maskUnits="userSpaceOnUse" x="0" y="0" width="40" height="41">
<path d="M40 0H0V41H40V0Z" fill="white"/>
</mask>
<g mask="url(#mask0_1017_12)">
<path d="M23.4806 4.57335C21.7979 2.53799 20.348 0.4564 20.0536 0.0292429C20.0475 0.020219 20.0394 0.0128448 20.0299 0.00775207C20.0204 0.00265943 20.0098 -9.40373e-07 19.9991 2.49344e-10C19.9884 9.40867e-07 19.9779 0.00266263 19.9684 0.00775694C19.9589 0.0128513 19.9507 0.0202265 19.9446 0.0292514C19.6503 0.456418 18.2008 2.538 16.5181 4.57335C2.09572 23.4062 18.7945 36.1125 18.7945 36.1125L18.9298 36.2089C19.0564 38.1748 19.3709 41 19.3709 41H20.6277C20.6277 41 20.9409 38.1869 21.068 36.2216L21.2042 36.1125C21.2042 36.1125 37.9028 23.4063 23.4806 4.57335ZM19.9994 35.8363C19.9994 35.8363 19.2507 35.1818 19.0486 34.8539L19.0467 34.8186L19.9522 14.315C19.9528 14.3026 19.958 14.2909 19.9667 14.2823C19.9756 14.2737 19.9872 14.2689 19.9993 14.2689C20.0114 14.2689 20.0231 14.2737 20.0319 14.2823C20.0406 14.2909 20.0458 14.3026 20.0464 14.315L20.9519 34.8185L20.9501 34.8538C20.7482 35.1817 19.9994 35.8363 19.9994 35.8363Z" fill="black"/>
</g>
</g>
<defs>
<clipPath id="clip0_1017_12">
<rect width="40" height="41" fill="white"/>
</clipPath>
</defs>
</svg>
