<svg width="91" height="91" viewBox="0 0 91 91" fill="none" xmlns="http://www.w3.org/2000/svg">
<path fill-rule="evenodd" clip-rule="evenodd" d="M19.0032 34.7752C19.3298 34.9634 19.5292 35.311 19.5292 35.6895L19.5124 49.1902C19.5124 49.3773 19.4113 49.5524 19.2515 49.6449C19.0898 49.7415 18.8875 49.7415 18.725 49.6449L13.5485 46.6806C13.2231 46.4872 13.0208 46.1417 13.0208 45.7672V39.4595C13.0208 39.0831 12.8205 38.7354 12.4941 38.5482L10.29 37.2786C10.1308 37.1839 9.94691 37.1373 9.7667 37.1373C9.58362 37.1373 9.40383 37.1842 9.2401 37.2787L7.03488 38.5489C6.70882 38.736 6.50929 39.0837 6.50929 39.46V45.7683C6.50929 46.1431 6.30976 46.4871 5.98267 46.6816L0.802887 49.6481C0.642429 49.7467 0.440832 49.7467 0.280389 49.6481C0.115821 49.5555 0.0191258 49.3805 0.0191258 49.1933L0 35.6905C0 35.3121 0.202412 34.9643 0.527031 34.7752L9.23968 29.762C9.38922 29.6755 9.55399 29.6303 9.72105 29.6241H9.81114C9.97818 29.6303 10.143 29.6755 10.29 29.762L19.0032 34.7752ZM60.5124 42.9475C60.5942 42.9008 60.6441 42.814 60.6441 42.7198L60.6433 39.2648C60.6433 39.1705 60.5938 39.0837 60.5116 39.0365L57.5184 37.3084C57.4361 37.2612 57.3354 37.2612 57.2531 37.3084L54.262 39.0365C54.1817 39.0837 54.1325 39.1705 54.1325 39.2648V42.7198C54.1325 42.8137 54.1818 42.9007 54.2642 42.9475L57.2572 44.6725C57.3381 44.7191 57.4386 44.7191 57.5198 44.6725L60.5124 42.9475ZM60.9293 17.1346C61.0904 17.0406 61.2894 17.0382 61.4526 17.1292L66.6376 20.0233C66.9709 20.2098 67.1786 20.561 67.1786 20.9427V46.023C67.1786 46.3994 66.977 46.745 66.652 46.9341L57.936 51.9701C57.6095 52.1572 57.2089 52.1572 56.8832 51.9701L48.1674 46.9363C47.8418 46.747 47.6409 46.4015 47.6409 46.025V35.9617C47.6409 35.5873 47.8418 35.2396 48.1674 35.0524L56.8832 30.0222C57.2097 29.8342 57.61 29.8342 57.935 30.0222L60.1176 31.2794C60.2318 31.3451 60.3727 31.3451 60.4859 31.2794C60.5997 31.2134 60.6697 31.092 60.6697 30.9603V17.5892C60.6697 17.4021 60.7688 17.2293 60.9293 17.1346ZM91 38.2642C91 38.6386 90.8008 38.9858 90.4769 39.1738L85.2489 42.2104C85.0864 42.3049 84.8848 42.3049 84.7224 42.2124C84.5599 42.1178 84.4589 41.9428 84.4589 41.7556V39.2748C84.4589 39.0876 84.3583 38.9129 84.1958 38.8203L81.466 37.2465C81.3035 37.1519 81.1039 37.1519 80.9414 37.2465L78.2136 38.8203C78.0491 38.9139 77.9505 39.0876 77.9505 39.276V42.4317C77.9505 42.6189 78.0511 42.7936 78.2158 42.8862L86.9832 47.9179C87.1477 48.0105 87.2484 48.1875 87.2484 48.3768C87.2484 48.5659 87.1434 48.7409 86.9791 48.8335L81.7416 51.7442C81.4187 51.9232 81.0278 51.9212 80.709 51.7381L72.0507 46.803C71.7235 46.6159 71.5199 46.2661 71.5199 45.8875V35.8284C71.5199 35.4519 71.7195 35.1064 72.0464 34.917L80.7604 29.8874C81.0874 29.6981 81.4887 29.6981 81.8155 29.8874L90.4762 34.915C90.8004 35.1038 91 35.4499 91 35.8253V38.2642ZM44.978 72.7953C44.6777 72.7953 44.3793 72.7165 44.1159 72.5648L41.3726 70.9406C40.9627 70.7114 41.1626 70.6302 41.2978 70.5837C41.8442 70.3924 41.9551 70.3491 42.5382 70.018C42.5997 69.9829 42.6799 69.9954 42.7426 70.0323L44.8503 71.2832C44.9264 71.3242 45.0343 71.3242 45.105 71.2832L53.323 66.5394C53.3991 66.4961 53.4486 66.4077 53.4486 66.3171V56.8341C53.4486 56.7392 53.3991 56.655 53.3215 56.6077L45.1066 51.8682C45.0304 51.8229 44.9297 51.8229 44.8536 51.8682L36.6403 56.6077C36.5607 56.6529 36.5102 56.7415 36.5102 56.8318V66.3151C36.5102 66.4057 36.5595 66.4921 36.6377 66.5352L38.888 67.8353C40.11 68.4462 40.8569 67.7263 40.8569 67.0022V57.6424C40.8569 57.5087 40.9618 57.4058 41.0955 57.4058H42.1363C42.2659 57.4058 42.3729 57.5087 42.3729 57.6424V67.0063C42.3729 68.6356 41.4842 69.5715 39.9393 69.5715C39.4641 69.5715 39.0896 69.5715 38.0447 69.0572L35.8888 67.8148C35.3561 67.5064 35.027 66.9302 35.027 66.3151V56.8318C35.027 56.2148 35.3561 55.6388 35.8888 55.3343L44.1152 50.5886C44.6356 50.2944 45.3268 50.2944 45.8431 50.5886L54.0591 55.3364C54.5899 55.6428 54.9212 56.2168 54.9212 56.8341V66.3171C54.9212 66.9322 54.5899 67.5064 54.0591 67.8148L45.8431 72.5606C45.5799 72.7127 45.2816 72.7909 44.9772 72.7909L44.978 72.7953ZM47.5164 66.2605C43.9206 66.2605 43.1667 64.61 43.1667 63.2255C43.1667 63.0939 43.2729 62.9889 43.4046 62.9889H44.466C44.5835 62.9889 44.6821 63.0742 44.7006 63.1901C44.8612 64.2717 45.3383 64.8172 47.5127 64.8172C49.2448 64.8172 49.9813 64.4259 49.9813 63.5075C49.9813 62.9788 49.7713 62.5858 47.0807 62.3226C44.8302 62.1004 43.4397 61.6046 43.4397 59.8048C43.4397 58.1467 44.8385 57.1592 47.1815 57.1592C49.8124 57.1592 51.1167 58.0728 51.2813 60.0351C51.2875 60.103 51.2629 60.1689 51.2175 60.2183C51.1723 60.2655 51.1086 60.2943 51.0428 60.2943H49.9751C49.8639 60.2943 49.7673 60.2161 49.7447 60.1092C49.4875 58.9716 48.8661 58.6076 47.1774 58.6076C45.287 58.6076 45.0668 59.2658 45.0668 59.7596C45.0668 60.358 45.326 60.5331 47.8768 60.8703C50.4029 61.2056 51.6021 61.6787 51.6021 63.454C51.6021 65.2437 50.1087 66.2703 47.5046 66.2703L47.5164 66.2605ZM57.5144 56.213H57.79C58.0162 56.213 58.0594 56.0547 58.0594 55.9622C58.0594 55.7193 57.8928 55.7195 57.8002 55.7195H57.5164L57.5144 56.213ZM57.1791 55.4355H57.79C57.9998 55.4355 58.4112 55.4355 58.4112 55.9046C58.4112 56.2306 58.2025 56.299 58.0771 56.3402C58.3152 56.3562 58.3361 56.5089 58.3674 56.7256L58.3701 56.7438L58.3719 56.76C58.3886 56.9037 58.415 57.1337 58.4627 57.2128H58.0863L58.0792 57.1567C58.0606 57.0091 58.0183 56.6745 58.0183 56.6533C57.9937 56.5525 57.9588 56.5032 57.8332 56.5032H57.5225V57.2148H57.1791V55.4355ZM56.4446 56.3201C56.4446 57.0566 57.0391 57.6531 57.7695 57.6531C58.5057 57.6531 59.1004 57.0441 59.1004 56.3201C59.1004 55.5815 58.4976 54.9952 57.7672 54.9952C57.0475 54.9952 56.4426 55.5734 56.4426 56.3181L56.4446 56.3201ZM59.3553 56.3242C59.3553 57.1964 58.6417 57.9081 57.7715 57.9081C56.9074 57.9081 56.1875 57.2046 56.1875 56.3242C56.1875 55.4273 56.9239 54.7402 57.7715 54.7402C58.6252 54.7402 59.3533 55.4294 59.3533 56.3242H59.3553ZM81.1605 38.7027C81.2223 38.6663 81.2997 38.6663 81.3621 38.7027L83.0347 39.6675C83.0971 39.7037 83.1355 39.7704 83.1355 39.8425V41.774C83.1355 41.8461 83.0971 41.9128 83.0347 41.9489L81.3621 42.9138C81.2997 42.9502 81.2223 42.9502 81.1605 42.9138L79.4894 41.9489C79.4254 41.9128 79.3864 41.8461 79.3864 41.774V39.8425C79.3864 39.7704 79.4234 39.7037 79.4872 39.6675L81.1605 38.7027ZM34.3299 30.1681C33.9955 29.9731 33.5816 29.9731 33.2514 30.1681L24.2988 35.3326C23.9576 35.5266 23.7595 35.8833 23.7595 36.2686V46.6089C23.7595 46.9943 23.9685 47.351 24.3098 47.545L33.2514 52.7095C33.5816 52.9044 33.9955 52.9044 34.3299 52.7095L43.277 47.545C43.6116 47.351 43.8164 46.9943 43.8164 46.6089V36.2686C43.8164 35.8833 43.6116 35.5266 43.277 35.3326L34.3299 30.1681Z" fill="white"/>
</svg>
