<svg width="55" height="54" viewBox="0 0 55 54" fill="none" xmlns="http://www.w3.org/2000/svg">
<path d="M44.3437 19.0684C43.7422 18.984 43.2266 18.7309 42.625 18.5621C42.7109 18.2246 42.7109 17.8871 42.8828 17.3809C44.0859 11.3059 43.2266 6.49651 40.4766 4.80901C37.7266 3.29026 33.2578 4.89339 28.7891 8.69023C28.4453 9.02773 27.8438 9.36523 27.5 9.87148C27.2422 9.61835 26.8984 9.36523 26.6406 9.02773C21.9141 4.89339 17.2734 3.20589 14.3516 4.80901C11.6016 6.32776 10.7422 10.9684 11.9453 16.6215C12.0312 17.2121 12.2031 17.8027 12.2891 18.309C11.6875 18.3934 11 18.6465 10.3984 18.8996C4.8125 20.8402 0.859375 23.9621 0.859375 26.9152C0.859375 30.1215 5.07031 33.3277 10.8281 35.184C11.3438 35.2684 11.7734 35.5215 12.2891 35.5215C12.2031 36.1121 11.9453 36.7027 11.9453 37.3777C10.8281 42.9465 11.6875 47.4184 14.4375 48.9371C17.1875 50.6246 22 48.9371 26.4687 44.8871C26.8125 44.5496 27.1562 44.2965 27.5859 43.959C27.9297 44.2965 28.5312 44.8027 29.0469 45.1402C33.3437 48.9371 37.8125 50.4559 40.6484 48.9371C43.3984 47.2496 44.3438 42.5246 43.1406 36.6184C43.0547 36.2809 43.0547 35.6902 42.7969 35.184C43.1406 35.0996 43.3984 35.0996 43.7422 34.8465C49.7578 33.0746 54.1406 29.8684 54.1406 26.6621C54.0547 24.0465 49.9297 21.009 44.3437 19.0684ZM30.25 10.4621C34.1172 7.17151 37.7266 5.99026 39.4453 6.83401C41.1641 7.76214 41.8516 11.8121 40.7344 17.1277C40.6484 17.4652 40.6484 17.7184 40.4766 18.2246C38.1562 17.7184 35.9219 17.2965 33.5156 17.1277C32.2266 15.2715 30.7656 13.3309 29.2188 11.8121C29.5625 11.1371 29.9063 10.7996 30.25 10.4621ZM18.3047 32.3152C18.8203 33.2434 19.4219 34.0871 20.0234 34.9309C18.3047 34.8465 16.7578 34.5934 15.2109 34.2559C15.5547 32.8215 16.1563 31.3027 16.9297 29.784C17.2734 30.5434 17.875 31.5559 18.3047 32.3152ZM15.2109 20.1652C16.6719 19.8277 18.2188 19.5746 19.9375 19.3215C19.3359 20.1652 18.8203 21.009 18.3906 21.9371C17.9609 22.8652 17.4453 23.6246 16.9297 24.6371C16.1563 23.034 15.7266 21.5996 15.2109 20.1652ZM17.9609 27.1684C18.5625 25.734 19.4219 24.4684 20.2813 23.034C21.1406 21.5996 22 20.334 22.7734 18.984C24.3203 18.8996 25.8672 18.8996 27.5 18.8996C29.0469 18.8996 30.7656 18.984 32.2266 18.984C33.1719 20.2496 33.9453 21.5996 34.7188 22.8652C35.5781 24.1309 36.2656 25.5652 37.0391 26.9996C36.4375 28.434 35.5781 29.6996 34.7188 31.134C33.8594 32.5684 33 33.834 32.2266 35.184C30.6797 35.2684 29.1328 35.2684 27.4141 35.2684C25.6953 35.2684 24.1484 35.184 22.6875 35.184C21.7422 33.9184 20.9687 32.5684 20.1953 31.134C19.4219 29.6996 18.7344 28.6027 17.9609 27.1684ZM36.6953 32.3152C37.2109 31.3871 37.6406 30.5434 38.1563 29.6152C38.7578 31.0496 39.3594 32.5684 39.875 34.0871C38.3281 34.4246 36.6094 34.6777 34.8906 34.9309C35.5781 34.0871 36.1797 33.159 36.6953 32.3152ZM38.2422 24.5527C37.7266 23.6246 37.2969 22.7809 36.7812 21.8527C36.2656 20.9246 35.6641 20.1652 35.2344 19.4059C36.9531 19.659 38.5 19.9121 39.9609 20.2496C39.4453 21.684 38.8437 23.1184 38.2422 24.5527ZM27.5 13.1621C28.6172 14.3434 29.5625 15.5246 30.5078 16.7902C28.4453 16.7059 26.3828 16.7059 24.3203 16.7902C25.4375 15.4402 26.5547 14.259 27.5 13.1621ZM15.4688 6.91839C17.1875 5.99026 21.1406 7.25589 25.0938 10.9684C25.3516 11.2215 25.6094 11.4746 25.9531 11.6434C24.4063 13.3309 22.9453 15.1871 21.4844 16.959C19.1641 17.2121 16.7578 17.5496 14.5234 18.0559C14.4375 17.5496 14.2656 16.959 14.1797 16.5371C13.2344 11.559 13.8359 7.84651 15.4688 6.91839ZM13.0625 33.7496C12.7187 33.6652 12.2031 33.4965 11.7734 33.4121C9.45312 32.8215 7.04688 31.6402 5.15625 30.2059C3.95313 29.3621 3.35156 28.3496 3.09375 27.1684C3.09375 25.3121 6.44531 22.9496 11.1719 21.2621C11.7734 21.009 12.375 20.9246 12.9766 20.6715C13.6641 22.9496 14.5234 25.059 15.4688 27.1684C14.6094 29.2777 13.6641 31.3871 13.0625 33.7496ZM25.0078 43.6215C23.2891 45.1402 21.3125 46.3215 19.0781 47.1652C17.875 47.7559 16.5859 47.7559 15.4688 47.2496C13.75 46.3215 13.1484 42.7777 14.0078 37.884C14.0937 37.2934 14.2656 36.7027 14.3516 36.1965C16.6719 36.7027 19.0781 37.0402 21.3125 37.1246C22.6016 38.9809 24.2344 40.9215 25.7812 42.609C25.6953 43.1152 25.3516 43.3684 25.0078 43.6215ZM27.5859 41.259C26.4687 40.0777 25.5234 38.8965 24.4922 37.6309C25.4375 37.6309 26.3828 37.7152 27.5 37.7152C28.6172 37.7152 29.6484 37.7152 30.5937 37.6309C29.6484 38.7277 28.7031 39.909 27.5859 41.259ZM41.1641 44.2121C41.0781 45.3934 40.4766 46.659 39.4453 47.4184C37.7266 48.3465 34.2891 47.1652 30.5078 43.8746C30.1641 43.5371 29.6484 43.1996 29.2188 42.6934C30.7656 41.0059 32.2266 39.1496 33.5156 37.209C35.9219 37.1246 38.2422 36.6184 40.4766 36.1121C40.5625 36.4496 40.5625 36.9559 40.7344 37.2934C41.3359 39.6559 41.3359 42.0184 41.1641 44.2121ZM43.0547 33.3277C42.7969 33.4121 42.4531 33.4121 42.1094 33.5809C41.4219 31.3027 40.3906 29.1934 39.4453 27.084C40.3906 25.059 41.25 22.8652 41.9375 20.6715C42.5391 20.7559 43.0547 21.009 43.4844 21.1777C48.2969 22.8652 51.6484 25.2277 51.6484 27.084C51.7344 29.0246 48.2109 31.6402 43.0547 33.3277ZM27.5 31.7246C30.1641 31.7246 32.2266 29.6152 32.2266 27.084C32.2266 24.5527 30.0781 22.4434 27.5 22.4434C25.0078 22.4434 22.7734 24.5527 22.7734 27.084C22.7734 29.6152 24.8359 31.7246 27.5 31.7246Z" fill="white"/>
</svg>
