<svg width="50" height="51" viewBox="0 0 50 51" fill="none" xmlns="http://www.w3.org/2000/svg">
<path d="M44.4393 0.54541H5.11199C2.4765 0.54541 0.339264 2.71603 0.339264 5.39271V45.3345C0.339264 48.0112 2.4765 50.1818 5.11199 50.1818H44.4393C47.0748 50.1818 49.212 48.0112 49.212 45.3345V5.39271C49.212 2.71603 47.0748 0.54541 44.4393 0.54541ZM28.6893 28.0781H22.5801V45.8192H17.7119V28.0781H11.6029V24.1033H28.6893V28.0781ZM44.4393 42.6297C44.0574 43.5022 43.3988 44.1517 42.6256 44.6655C41.862 45.1406 41.0029 45.509 39.9528 45.732C38.9029 45.9549 37.8528 46.0616 36.7074 46.0616C35.562 46.0616 34.4165 45.9646 33.3665 45.761C32.3165 45.5574 31.3715 45.2569 30.5983 44.8497V40.1915C30.5382 40.1431 30.4762 40.0955 30.417 40.0451L30.5983 40.0024V40.1915C31.4097 40.8459 32.3032 41.35 33.2806 41.6932C34.2351 42.0616 35.2852 42.2458 36.3351 42.2458C37.0033 42.2458 37.5093 42.1876 37.9578 42.081C38.4256 41.9646 38.7979 41.8095 39.1034 41.6156C39.4088 41.4217 39.636 41.1891 39.7811 40.9176C39.9262 40.6462 40.0006 40.3553 40.0006 40.0451C40.0006 39.5991 39.8766 39.2114 39.638 38.8817C39.4184 38.5521 39.0938 38.2419 38.6834 37.9608C38.3016 37.6796 37.8243 37.4082 37.2516 37.1464C36.6789 36.8847 36.0966 36.6132 35.4379 36.3418C33.8152 35.5662 32.5362 34.7906 31.7152 33.7242C30.8847 32.7548 30.4743 31.4945 30.4743 30.0403C30.4743 28.8769 30.6939 27.9462 31.1425 27.1319C31.6197 26.2594 32.183 25.6195 32.9561 25.096C33.7197 24.5628 34.5788 24.175 35.6289 23.9327C36.6788 23.6903 37.7288 23.5643 38.8743 23.5643C40.0198 23.5643 40.9743 23.6321 41.8334 23.7679C42.6925 23.9036 43.4943 24.1169 44.2198 24.398V28.9545C43.8857 28.7024 43.4943 28.4794 43.0743 28.2855C42.6257 28.0917 42.1865 27.9365 41.738 27.8105C41.2893 27.6845 40.8407 27.5904 40.4016 27.5294C39.9816 27.4683 39.5616 27.4382 39.1607 27.4382C38.5784 27.4382 38.082 27.4867 37.6334 27.5934C37.1752 27.7 36.7934 27.8454 36.4879 28.0393C36.1825 28.2332 35.9448 28.4562 35.7721 28.7276C35.5992 28.9991 35.5143 29.2996 35.5143 29.6292C35.5143 29.9879 35.6097 30.3078 35.8006 30.5987C35.9915 30.8798 36.2588 31.1513 36.6119 31.413C36.927 31.6651 37.3565 31.9171 37.8528 32.1692C38.4256 32.4213 38.941 32.6733 39.571 32.9351C40.4301 33.3035 41.1937 33.7106 41.862 34.0984C42.5301 34.4862 43.0933 34.9419 43.5802 35.4557C44.0956 35.9404 44.4679 36.5221 44.7256 37.2007C44.9833 37.8793 45.117 38.6452 45.117 39.5274C45.117 40.7877 44.8211 41.7572 44.4393 42.6297Z" fill="white"/>
</svg>
