<svg width="48" height="48" viewBox="0 0 48 48" fill="none" xmlns="http://www.w3.org/2000/svg">
<path d="M24 1.3501C11.475 1.3501 1.34998 11.4751 1.34998 24.0001C1.34998 36.5251 11.475 46.7251 24 46.7251C36.525 46.7251 46.725 36.5251 46.725 24.0001C46.725 11.4751 36.525 1.3501 24 1.3501ZM24 43.3501C13.35 43.3501 4.72498 34.6501 4.72498 24.0001C4.72498 13.3501 13.35 4.7251 24 4.7251C34.65 4.7251 43.35 13.4251 43.35 24.0751C43.35 34.6501 34.65 43.3501 24 43.3501Z" fill="white"/>
<path d="M25.1999 17.85C24.5249 17.175 23.475 17.175 22.8 17.85L12.675 27.75C12 28.425 12 29.475 12.675 30.15C12.975 30.45 13.425 30.675 13.875 30.675C14.325 30.675 14.7 30.525 15.075 30.225L24 21.375L32.925 30.15C33.6 30.825 34.6499 30.825 35.3249 30.15C35.9999 29.475 35.9999 28.425 35.3249 27.75L25.1999 17.85Z" fill="white"/>
</svg>
