<svg width="49" height="49" viewBox="0 0 49 49" fill="none" xmlns="http://www.w3.org/2000/svg">
<path d="M14.165 20.5954C14.165 22.2798 15.0072 23.0454 15.0072 23.5048C15.0072 23.7345 14.9306 23.811 14.7009 23.9642L13.7056 24.5767C13.629 24.6532 13.3994 24.6532 13.2462 24.6532C13.2462 24.6532 12.6337 24.7298 11.715 22.7392C10.6431 24.1173 8.88217 25.036 7.12121 24.8829C5.97277 24.9595 2.68058 24.2704 2.83371 20.672C2.75714 17.8392 5.28371 16.0782 8.11654 16.2314C8.65248 16.2314 9.72436 16.2314 11.5619 16.6907V15.5423C11.7915 13.6282 10.49 12.097 8.19311 12.3267C8.11654 12.3267 6.81496 12.3267 4.74777 13.0923C4.21183 13.3985 4.21183 13.3985 3.98214 13.3985C3.44621 13.3985 3.67589 11.8673 3.75246 11.561C4.05871 11.1017 6.43214 10.2595 8.57592 10.2595C10.1072 10.1829 11.5619 10.5657 12.7869 11.561C13.7822 12.6329 14.165 14.011 14.0884 15.4657L14.165 20.5954ZM7.65717 22.9689C10.0306 22.9689 11.1025 21.4376 11.3322 20.672C11.4087 19.9064 11.4087 19.5235 11.4087 18.6048C10.6431 18.5282 9.57123 18.2985 8.42279 18.2985C7.35089 18.222 5.20714 18.7579 5.28371 20.672C5.43683 22.0501 6.27902 23.0454 7.65717 22.9689ZM20.3665 24.6532C19.754 24.7298 19.5244 24.347 19.3712 23.8876L15.6962 11.7142C15.6197 11.4845 15.6197 11.2548 15.6197 11.1017C15.6197 10.872 15.6962 10.7954 15.9259 10.7954C15.9259 10.7954 15.8494 10.7954 17.5337 10.7954C18.1462 10.7189 18.3759 11.2548 18.529 11.561L21.2087 21.9735L23.7353 11.561C23.8119 11.3314 23.965 10.7189 24.7306 10.7954H26.0322C26.1087 10.7954 26.8744 10.7954 27.0275 11.561L29.4775 22.1267L32.1572 11.561C32.1572 11.4845 32.3869 10.7189 33.1525 10.7954H34.6837C34.7603 10.7954 35.1431 10.7189 34.99 11.4079C34.99 11.4845 35.2197 10.5657 31.0853 23.9642C31.0087 24.4235 30.779 24.8064 30.09 24.7298H28.7119C27.8697 24.8064 27.7165 23.9642 27.7165 23.8876L25.0369 13.7814L22.5869 23.8876C22.5869 23.9642 22.5103 24.7298 21.5915 24.7298H20.4431V24.6532H20.3665ZM40.579 25.1126C40.1197 25.1126 38.129 25.1126 36.3681 24.2704C36.0619 24.1939 35.7556 23.7345 35.7556 23.4282V22.586C35.7556 21.9735 36.215 22.0501 36.3681 22.1267C37.1337 22.4329 37.5165 22.6626 38.5119 22.8923C41.1915 23.5048 42.4165 22.8157 42.7228 22.586C43.7181 21.9735 43.7947 20.672 43.029 19.9829C42.2634 19.3704 41.9572 19.3704 39.1244 18.4517C38.8947 18.2985 35.9853 17.3798 35.9853 14.547C35.9087 12.4798 37.8228 10.336 41.115 10.336C42.1103 10.336 44.5603 10.6423 45.3259 11.4845C45.4025 11.561 45.4025 11.7907 45.4025 12.0204V12.786C45.4025 13.0923 45.3259 13.322 45.0962 13.322C44.4837 13.2454 43.565 12.4798 41.4212 12.4798C40.8853 12.4798 38.4353 12.5564 38.5884 14.3173C38.5884 15.6954 40.6556 16.2314 40.8853 16.3845C43.565 17.2267 44.5603 17.3798 45.479 18.6814C46.7806 20.2892 46.0915 22.2032 45.7853 22.7392C44.3306 25.4189 40.7322 25.1126 40.579 25.1126ZM43.6415 32.922C38.5119 36.6735 30.9322 38.7407 24.5775 38.7407C15.8494 38.8939 7.42746 35.6782 0.996207 29.8595C0.460268 29.4001 0.919645 28.7876 1.53214 29.247C8.65248 33.2282 16.6915 35.372 24.9603 35.372C31.0853 35.372 37.1337 34.0704 42.7994 31.697C43.7181 31.3142 44.4837 32.2329 43.6415 32.922ZM45.7853 30.472C45.1728 29.6298 41.3447 30.1657 39.7369 30.2423C39.2009 30.3189 39.1244 29.936 39.6603 29.6298C42.6462 27.5626 47.5462 28.0985 48.0822 28.7876C48.6947 29.4001 48.0056 34.3767 45.0962 36.7501C44.6369 37.0564 44.254 36.8267 44.4837 36.4439C45.0197 34.7595 46.3978 31.3142 45.7853 30.472Z" fill="black"/>
</svg>
