<svg width="66" height="66" viewBox="0 0 66 66" fill="none" xmlns="http://www.w3.org/2000/svg">
<path fill-rule="evenodd" clip-rule="evenodd" d="M13.7826 25.2216C14.0194 25.358 14.164 25.6102 14.164 25.8847L14.1518 35.6764C14.1518 35.8121 14.0785 35.9391 13.9626 36.0062C13.8454 36.0762 13.6986 36.0762 13.5807 36.0062L9.82638 33.8563C9.59037 33.716 9.44369 33.4654 9.44369 33.1938V28.6189C9.44369 28.346 9.29838 28.0938 9.06169 27.958L7.46309 27.0372C7.34763 26.9685 7.21424 26.9347 7.08354 26.9347C6.95076 26.9347 6.82036 26.9687 6.70161 27.0373L5.10222 27.9585C4.86574 28.0942 4.72102 28.3464 4.72102 28.6194V33.1946C4.72102 33.4664 4.57631 33.7159 4.33908 33.857L0.582314 36.0085C0.465937 36.08 0.319725 36.08 0.203359 36.0085C0.084002 35.9413 0.0138714 35.8144 0.0138714 35.6787L0 25.8854C0 25.611 0.146805 25.3588 0.382242 25.2216L6.70131 21.5856C6.80977 21.5229 6.92927 21.4901 7.05043 21.4856H7.11577C7.23692 21.4901 7.35643 21.5229 7.46309 21.5856L13.7826 25.2216ZM43.8881 31.1487C43.9474 31.1149 43.9836 31.0519 43.9836 30.9836L43.983 28.4778C43.983 28.4094 43.9471 28.3464 43.8875 28.3122L41.7166 27.0589C41.6569 27.0246 41.5839 27.0246 41.5242 27.0589L39.3549 28.3122C39.2966 28.3464 39.2609 28.4094 39.2609 28.4778V30.9836C39.2609 31.0517 39.2967 31.1148 39.3564 31.1487L41.5272 32.3998C41.5859 32.4336 41.6588 32.4336 41.7177 32.3998L43.8881 31.1487ZM44.1905 12.4273C44.3073 12.3591 44.4516 12.3574 44.57 12.4234L48.3306 14.5224C48.5723 14.6577 48.723 14.9124 48.723 15.1892V33.3793C48.723 33.6523 48.5767 33.903 48.341 34.0401L42.0195 37.6926C41.7827 37.8283 41.4921 37.8283 41.256 37.6926L34.9346 34.0417C34.6985 33.9044 34.5528 33.6538 34.5528 33.3807V26.0821C34.5528 25.8105 34.6985 25.5584 34.9346 25.4226L41.256 21.7743C41.4928 21.638 41.7831 21.638 42.0188 21.7743L43.6018 22.6862C43.6846 22.7338 43.7868 22.7338 43.8689 22.6862C43.9515 22.6383 44.0022 22.5503 44.0022 22.4548V12.757C44.0022 12.6213 44.0741 12.496 44.1905 12.4273ZM66 27.7521C66 28.0236 65.8555 28.2754 65.6206 28.4118L61.8289 30.6141C61.711 30.6827 61.5648 30.6827 61.447 30.6156C61.3292 30.547 61.2559 30.42 61.2559 30.2843V28.485C61.2559 28.3493 61.1829 28.2225 61.0651 28.1554L59.0853 27.0139C58.9674 26.9453 58.8226 26.9453 58.7047 27.0139L56.7264 28.1554C56.6071 28.2233 56.5355 28.3493 56.5355 28.4859V30.7747C56.5355 30.9104 56.6085 31.0371 56.7279 31.1043L63.0867 34.7537C63.206 34.8208 63.279 34.9492 63.279 35.0864C63.279 35.2236 63.2029 35.3505 63.0837 35.4177L59.2851 37.5287C59.0509 37.6586 58.7674 37.6571 58.5362 37.5243L52.2565 33.945C52.0192 33.8093 51.8716 33.5556 51.8716 33.281V25.9854C51.8716 25.7124 52.0164 25.4618 52.2534 25.3244L58.5735 21.6766C58.8106 21.5393 59.1017 21.5393 59.3387 21.6766L65.6201 25.323C65.8552 25.4599 66 25.7109 66 25.9832V27.7521ZM32.6214 52.7966C32.4036 52.7966 32.1872 52.7395 31.9962 52.6294L30.0065 51.4514C29.7092 51.2852 29.8542 51.2263 29.9522 51.1926C30.3486 51.0538 30.429 51.0224 30.8519 50.7823C30.8965 50.7568 30.9546 50.7659 31.0001 50.7927L32.5288 51.6999C32.584 51.7297 32.6623 51.7297 32.7135 51.6999L38.6738 48.2593C38.729 48.228 38.7649 48.1638 38.7649 48.0981V41.2203C38.7649 41.1515 38.729 41.0905 38.6727 41.0561L32.7147 37.6187C32.6594 37.5859 32.5864 37.5859 32.5312 37.6187L26.5743 41.0561C26.5165 41.0889 26.4799 41.1532 26.4799 41.2187V48.0967C26.4799 48.1624 26.5157 48.2251 26.5724 48.2563L28.2045 49.1992C29.0907 49.6423 29.6325 49.1202 29.6325 48.595V41.8066C29.6325 41.7096 29.7086 41.635 29.8055 41.635H30.5604C30.6544 41.635 30.732 41.7096 30.732 41.8066V48.598C30.732 49.7797 30.0874 50.4585 28.967 50.4585C28.6223 50.4585 28.3507 50.4585 27.5928 50.0854L26.0293 49.1843C25.6429 48.9607 25.4042 48.5428 25.4042 48.0967V41.2187C25.4042 40.7712 25.6429 40.3534 26.0293 40.1325L31.9957 36.6906C32.3731 36.4773 32.8744 36.4773 33.2488 36.6906L39.2077 40.1341C39.5927 40.3563 39.833 40.7726 39.833 41.2203V48.0981C39.833 48.5442 39.5927 48.9607 39.2077 49.1843L33.2488 52.6263C33.058 52.7367 32.8416 52.7934 32.6208 52.7934L32.6214 52.7966ZM34.4624 48.0571C31.8545 48.0571 31.3077 46.86 31.3077 45.8559C31.3077 45.7604 31.3848 45.6843 31.4802 45.6843H32.2501C32.3353 45.6843 32.4068 45.7462 32.4202 45.8302C32.5367 46.6147 32.8827 47.0103 34.4597 47.0103C35.716 47.0103 36.2502 46.7265 36.2502 46.0604C36.2502 45.677 36.0979 45.3919 34.1464 45.201C32.5142 45.0399 31.5057 44.6803 31.5057 43.3749C31.5057 42.1724 32.5203 41.4562 34.2196 41.4562C36.1277 41.4562 37.0736 42.1187 37.1931 43.542C37.1975 43.5912 37.1797 43.639 37.1468 43.6748C37.114 43.709 37.0678 43.73 37.02 43.73H36.2457C36.165 43.73 36.095 43.6732 36.0786 43.5957C35.892 42.7706 35.4414 42.5066 34.2166 42.5066C32.8455 42.5066 32.6858 42.984 32.6858 43.3421C32.6858 43.7762 32.8738 43.9031 34.7238 44.1477C36.556 44.3909 37.4257 44.734 37.4257 46.0216C37.4257 47.3196 36.3426 48.0642 34.4539 48.0642L34.4624 48.0571ZM41.7138 40.7699H41.9136C42.0777 40.7699 42.109 40.6551 42.109 40.5879C42.109 40.4118 41.9882 40.4119 41.921 40.4119H41.7152L41.7138 40.7699ZM41.4706 40.206H41.9136C42.0658 40.206 42.3642 40.206 42.3642 40.5462C42.3642 40.7826 42.2128 40.8323 42.1218 40.8622C42.2946 40.8737 42.3097 40.9845 42.3324 41.1416L42.3344 41.1548L42.3357 41.1666C42.3478 41.2708 42.3669 41.4376 42.4015 41.495H42.1285L42.1234 41.4543C42.1099 41.3473 42.0792 41.1046 42.0792 41.0892C42.0614 41.0161 42.036 40.9803 41.945 40.9803H41.7196V41.4965H41.4706V40.206ZM40.9378 40.8475C40.9378 41.3817 41.369 41.8143 41.8988 41.8143C42.4327 41.8143 42.864 41.3726 42.864 40.8475C42.864 40.3119 42.4269 39.8866 41.8971 39.8866C41.3751 39.8866 40.9364 40.306 40.9364 40.8461L40.9378 40.8475ZM43.0489 40.8505C43.0489 41.4831 42.5313 41.9993 41.9002 41.9993C41.2735 41.9993 40.7514 41.4891 40.7514 40.8505C40.7514 40.2 41.2855 39.7017 41.9002 39.7017C42.5194 39.7017 43.0475 40.2015 43.0475 40.8505H43.0489ZM58.8636 28.0701C58.9085 28.0437 58.9646 28.0437 59.0099 28.0701L60.2229 28.7698C60.2682 28.7961 60.2961 28.8445 60.2961 28.8968V30.2976C60.2961 30.3499 60.2682 30.3983 60.2229 30.4245L59.0099 31.1243C58.9646 31.1507 58.9085 31.1507 58.8636 31.1243L57.6516 30.4245C57.6052 30.3983 57.577 30.3499 57.577 30.2976V28.8968C57.577 28.8445 57.6038 28.7961 57.6501 28.7698L58.8636 28.0701ZM24.8986 21.8801C24.6561 21.7388 24.3559 21.7388 24.1164 21.8801L17.6233 25.6259C17.3758 25.7665 17.2322 26.0253 17.2322 26.3047V33.8043C17.2322 34.0838 17.3838 34.3425 17.6313 34.4832L24.1164 38.2289C24.3559 38.3702 24.6561 38.3702 24.8986 38.2289L31.3877 34.4832C31.6304 34.3425 31.7789 34.0838 31.7789 33.8043V26.3047C31.7789 26.0253 31.6304 25.7665 31.3877 25.6259L24.8986 21.8801Z" fill="black"/>
</svg>
