<svg width="40" height="39" viewBox="0 0 40 39" fill="none" xmlns="http://www.w3.org/2000/svg">
<path d="M32.25 13.7716C31.8125 13.7107 31.4375 13.5279 31 13.406C31.0625 13.1622 31.0625 12.9185 31.1875 12.5529C32.0625 8.16535 31.4375 4.69194 29.4375 3.47319C27.4375 2.37631 24.1875 3.53413 20.9375 6.27629C20.6875 6.52004 20.25 6.76379 20 7.12941C19.8125 6.9466 19.5625 6.76379 19.375 6.52004C15.9375 3.53413 12.5625 2.31538 10.4375 3.47319C8.4375 4.57006 7.8125 7.9216 8.6875 12.0044C8.75 12.431 8.875 12.8575 8.9375 13.2232C8.5 13.2841 8 13.4669 7.5625 13.6497C3.5 15.0513 0.625 17.306 0.625 19.4388C0.625 21.7544 3.6875 24.07 7.875 25.4107C8.25 25.4716 8.5625 25.6544 8.9375 25.6544C8.875 26.081 8.6875 26.5075 8.6875 26.995C7.875 31.0169 8.5 34.2466 10.5 35.3435C12.5 36.5622 16 35.3435 19.25 32.4185C19.5 32.1747 19.75 31.9919 20.0625 31.7482C20.3125 31.9919 20.75 32.3575 21.125 32.6013C24.25 35.3435 27.5 36.4404 29.5625 35.3435C31.5625 34.1247 32.25 30.7122 31.375 26.4466C31.3125 26.2029 31.3125 25.7763 31.125 25.4107C31.375 25.3497 31.5625 25.3497 31.8125 25.1669C36.1875 23.8872 39.375 21.5716 39.375 19.256C39.3125 17.3669 36.3125 15.1732 32.25 13.7716ZM22 7.55598C24.8125 5.17944 27.4375 4.32631 28.6875 4.93569C29.9375 5.606 30.4375 8.53098 29.625 12.37C29.5625 12.6138 29.5625 12.7966 29.4375 13.1622C27.75 12.7966 26.125 12.4919 24.375 12.37C23.4375 11.0294 22.375 9.62785 21.25 8.53098C21.5 8.04348 21.75 7.79973 22 7.55598ZM13.3125 23.3388C13.6875 24.0091 14.125 24.6185 14.5625 25.2279C13.3125 25.1669 12.1875 24.9841 11.0625 24.7404C11.3125 23.7044 11.75 22.6075 12.3125 21.5107C12.5625 22.0591 13 22.7904 13.3125 23.3388ZM11.0625 14.5638C12.125 14.32 13.25 14.1372 14.5 13.9544C14.0625 14.5638 13.6875 15.1732 13.375 15.8435C13.0625 16.5138 12.6875 17.0622 12.3125 17.7935C11.75 16.6357 11.4375 15.5997 11.0625 14.5638ZM13.0625 19.6216C13.5 18.5857 14.125 17.6716 14.75 16.6357C15.375 15.5997 16 14.6857 16.5625 13.7107C17.6875 13.6497 18.8125 13.6497 20 13.6497C21.125 13.6497 22.375 13.7107 23.4375 13.7107C24.125 14.6247 24.6875 15.5997 25.25 16.5138C25.875 17.4279 26.375 18.4638 26.9375 19.4997C26.5 20.5357 25.875 21.4497 25.25 22.4857C24.625 23.5216 24 24.4357 23.4375 25.4107C22.3125 25.4716 21.1875 25.4716 19.9375 25.4716C18.6875 25.4716 17.5625 25.4107 16.5 25.4107C15.8125 24.4966 15.25 23.5216 14.6875 22.4857C14.125 21.4497 13.625 20.6575 13.0625 19.6216ZM26.6875 23.3388C27.0625 22.6685 27.375 22.0591 27.75 21.3888C28.1875 22.4247 28.625 23.5216 29 24.6185C27.875 24.8622 26.625 25.045 25.375 25.2279C25.875 24.6185 26.3125 23.9482 26.6875 23.3388ZM27.8125 17.7325C27.4375 17.0622 27.125 16.4529 26.75 15.7825C26.375 15.1122 25.9375 14.5638 25.625 14.0154C26.875 14.1982 28 14.381 29.0625 14.6247C28.6875 15.6607 28.25 16.6966 27.8125 17.7325ZM20 9.50598C20.8125 10.3591 21.5 11.2122 22.1875 12.1263C20.6875 12.0654 19.1875 12.0654 17.6875 12.1263C18.5 11.1513 19.3125 10.2982 20 9.50598ZM11.25 4.99663C12.5 4.32631 15.375 5.24038 18.25 7.9216C18.4375 8.10441 18.625 8.28723 18.875 8.4091C17.75 9.62785 16.6875 10.9685 15.625 12.2482C13.9375 12.431 12.1875 12.6747 10.5625 13.0404C10.5 12.6747 10.375 12.2482 10.3125 11.9435C9.625 8.34816 10.0625 5.66694 11.25 4.99663ZM9.5 24.3747C9.25 24.3138 8.875 24.1919 8.5625 24.131C6.875 23.7044 5.125 22.8513 3.75 21.8154C2.875 21.206 2.4375 20.4747 2.25 19.6216C2.25 18.281 4.6875 16.5747 8.125 15.356C8.5625 15.1732 9 15.1122 9.4375 14.9294C9.9375 16.5747 10.5625 18.0982 11.25 19.6216C10.625 21.145 9.9375 22.6685 9.5 24.3747ZM18.1875 31.5044C16.9375 32.6013 15.5 33.4544 13.875 34.0638C13 34.4904 12.0625 34.4904 11.25 34.1247C10 33.4544 9.5625 30.895 10.1875 27.3607C10.25 26.9341 10.375 26.5075 10.4375 26.1419C12.125 26.5075 13.875 26.7513 15.5 26.8122C16.4375 28.1529 17.625 29.5544 18.75 30.7732C18.6875 31.1388 18.4375 31.3216 18.1875 31.5044ZM20.0625 29.7982C19.25 28.945 18.5625 28.0919 17.8125 27.1779C18.5 27.1779 19.1875 27.2388 20 27.2388C20.8125 27.2388 21.5625 27.2388 22.25 27.1779C21.5625 27.97 20.875 28.8232 20.0625 29.7982ZM29.9375 31.931C29.875 32.7841 29.4375 33.6982 28.6875 34.2466C27.4375 34.9169 24.9375 34.0638 22.1875 31.6872C21.9375 31.4435 21.5625 31.1997 21.25 30.8341C22.375 29.6154 23.4375 28.2747 24.375 26.8732C26.125 26.8122 27.8125 26.4466 29.4375 26.081C29.5 26.3247 29.5 26.6904 29.625 26.9341C30.0625 28.6404 30.0625 30.3466 29.9375 31.931ZM31.3125 24.07C31.125 24.131 30.875 24.131 30.625 24.2529C30.125 22.6075 29.375 21.0841 28.6875 19.5607C29.375 18.0982 30 16.5138 30.5 14.9294C30.9375 14.9904 31.3125 15.1732 31.625 15.295C35.125 16.5138 37.5625 18.22 37.5625 19.5607C37.625 20.9622 35.0625 22.8513 31.3125 24.07ZM20 22.9122C21.9375 22.9122 23.4375 21.3888 23.4375 19.5607C23.4375 17.7325 21.875 16.2091 20 16.2091C18.1875 16.2091 16.5625 17.7325 16.5625 19.5607C16.5625 21.3888 18.0625 22.9122 20 22.9122Z" fill="black"/>
</svg>
