<svg width="50" height="49" viewBox="0 0 50 49" fill="none" xmlns="http://www.w3.org/2000/svg">
<path fill-rule="evenodd" clip-rule="evenodd" d="M13.7388 19.9062C15.277 13.7815 19.1237 10.7188 25.2773 10.7188C34.508 10.7188 35.6619 17.6094 40.2773 18.7578C43.3544 19.5237 46.0465 18.3752 48.3542 15.3125C46.8159 21.4373 42.9693 24.5 36.8157 24.5C27.5849 24.5 26.4311 17.6094 21.8157 16.4609C18.7386 15.6951 16.0465 16.8435 13.7388 19.9062ZM2.20032 33.6875C3.73853 27.5627 7.58517 24.5 13.7388 24.5C22.9695 24.5 24.1234 31.3906 28.7388 32.5391C31.8159 33.3049 34.508 32.1565 36.8157 29.0938C35.2775 35.2185 31.4309 38.2812 25.2773 38.2812C16.0465 38.2812 14.8927 31.3906 10.2773 30.2422C7.20007 29.4763 4.508 30.6248 2.20032 33.6875Z" fill="white"/>
</svg>
